<?xml version="1.0" encoding="UTF-8" standalone="no"?>
<svg
   xmlns:dc="http://purl.org/dc/elements/1.1/"
   xmlns:cc="http://creativecommons.org/ns#"
   xmlns:rdf="http://www.w3.org/1999/02/22-rdf-syntax-ns#"
   xmlns:svg="http://www.w3.org/2000/svg"
   xmlns="http://www.w3.org/2000/svg"
   xmlns:sodipodi="http://sodipodi.sourceforge.net/DTD/sodipodi-0.dtd"
   xmlns:inkscape="http://www.inkscape.org/namespaces/inkscape"
   width="400"
   height="400"
   viewBox="0 0 105.83333 105.83334"
   version="1.1"
   id="svg8"
   inkscape:version="1.0.1 (3bc2e813f5, 2020-09-07)"
   sodipodi:docname="pagiszWhite.svg">
  <defs
     id="defs2">
    <rect
       x="1.7290935"
       y="39.971206"
       width="102.37515"
       height="25.890924"
       id="rect933" />
    <rect
       x="1.7290935"
       y="39.971206"
       width="102.37515"
       height="25.890924"
       id="rect927" />
    <rect
       x="104.10476"
       y="39.971206"
       width="48.353271"
       height="12.189955"
       id="rect900" />
    <rect
       x="1.7290935"
       y="39.971206"
       width="102.37515"
       height="25.890924"
       id="rect894" />
    <rect
       x="1.7290935"
       y="39.971206"
       width="102.37515"
       height="25.890924"
       id="rect888" />
    <rect
       x="5.1026787"
       y="41.955358"
       width="99.001563"
       height="23.906772"
       id="rect882" />
  </defs>
  <sodipodi:namedview
     id="base"
     pagecolor="#ffffff"
     bordercolor="#666666"
     borderopacity="1.0"
     inkscape:pageopacity="0.0"
     inkscape:pageshadow="2"
     inkscape:zoom="1.4"
     inkscape:cx="222.02092"
     inkscape:cy="139.83727"
     inkscape:document-units="px"
     inkscape:current-layer="layer1"
     inkscape:document-rotation="0"
     showgrid="false"
     units="px"
     inkscape:showpageshadow="false"
     inkscape:snap-global="true"
     inkscape:window-width="1920"
     inkscape:window-height="1007"
     inkscape:window-x="-9"
     inkscape:window-y="-9"
     inkscape:window-maximized="1" />
  <metadata
     id="metadata5">
    <rdf:RDF>
      <cc:Work
         rdf:about="">
        <dc:format>image/svg+xml</dc:format>
        <dc:type
           rdf:resource="http://purl.org/dc/dcmitype/StillImage" />
        <dc:title></dc:title>
      </cc:Work>
    </rdf:RDF>
  </metadata>
  <g
     inkscape:label="Réteg 1"
     inkscape:groupmode="layer"
     id="layer1">
    <path
       id="path869"
       style="opacity:0.997;fill:#0101af;fill-opacity:1;stroke:none;stroke-width:39.9999;stroke-linecap:square;stroke-miterlimit:4;stroke-dasharray:none;stroke-opacity:1"
       d="M 200 7 A 200.00002 193.00002 0 0 0 6.5351562 151.07227 L 44.486328 151.07227 A 163.57144 157.84644 0 0 1 200 42.154297 A 163.57144 157.84644 0 0 1 256.8125 51.982422 L 301.55078 51.982422 L 290.84766 68.738281 A 163.57144 157.84644 0 0 1 355.51367 151.07227 L 393.4668 151.07227 A 200.00002 193.00002 0 0 0 200 7 z M 6.5332031 248.92773 A 200.00002 193.00002 0 0 0 200 393 A 200.00002 193.00002 0 0 0 393.46484 248.92773 L 355.51367 248.92773 A 163.57144 157.84644 0 0 1 200 357.8457 A 163.57144 157.84644 0 0 1 163.20703 353.80078 L 154.36914 360.42773 L 152.02148 350.90234 A 163.57144 157.84644 0 0 1 44.486328 248.92773 L 6.5332031 248.92773 z "
       transform="scale(0.26458334)" />
    <text
       xml:space="preserve"
       id="text880"
       style="line-height:1.25;font-family:sans-serif;font-size:10.5833335px;letter-spacing:0px;white-space:pre;shape-inside:url(#rect882);" />
    <text
       xml:space="preserve"
       id="text886"
       style="line-height:1.25;font-family:sans-serif;font-size:10.5833335px;letter-spacing:0px;white-space:pre;shape-inside:url(#rect888);" />
    <text
       xml:space="preserve"
       id="text898"
       style="line-height:1.25;font-family:sans-serif;font-size:10.5833335px;letter-spacing:0px;white-space:pre;shape-inside:url(#rect900);" />
    <text
       xml:space="preserve"
       id="text925"
       style="line-height:1.25;font-family:'Arial Rounded MT Bold';font-size:22.5778px;letter-spacing:0px;white-space:pre;shape-inside:url(#rect927);-inkscape-font-specification:'Arial Rounded MT Bold, Normal';font-weight:normal;font-style:normal;font-stretch:normal;font-variant:normal;font-variant-ligatures:normal;font-variant-caps:normal;font-variant-numeric:normal;font-variant-east-asian:normal;" />
    <path
       id="path960"
       style="color:#000000;font-style:normal;font-variant:normal;font-weight:normal;font-stretch:normal;font-size:medium;line-height:normal;font-family:sans-serif;font-variant-ligatures:normal;font-variant-position:normal;font-variant-caps:normal;font-variant-numeric:normal;font-variant-alternates:normal;font-variant-east-asian:normal;font-feature-settings:normal;font-variation-settings:normal;text-indent:0;text-align:start;text-decoration:none;text-decoration-line:none;text-decoration-style:solid;text-decoration-color:#000000;letter-spacing:normal;word-spacing:normal;text-transform:none;writing-mode:lr-tb;direction:ltr;text-orientation:mixed;dominant-baseline:auto;baseline-shift:baseline;text-anchor:start;white-space:normal;shape-padding:0;shape-margin:0;inline-size:0;clip-rule:nonzero;display:inline;overflow:visible;visibility:visible;isolation:auto;mix-blend-mode:normal;color-interpolation:sRGB;color-interpolation-filters:linearRGB;solid-color:#000000;solid-opacity:1;vector-effect:none;fill:#aa0000;fill-opacity:1;fill-rule:nonzero;stroke:none;stroke-width:12.2;stroke-linecap:butt;stroke-linejoin:miter;stroke-miterlimit:4;stroke-dasharray:none;stroke-dashoffset:0;stroke-opacity:1;color-rendering:auto;image-rendering:auto;shape-rendering:auto;text-rendering:auto;enable-background:accumulate;stop-color:#000000"
       d="M 201.01953 58.083984 L 180.38086 155.38086 L 203.07617 155.38086 C 205.38295 155.38086 208.39722 155.36326 211.23242 155.69922 C 214.06762 156.0352 217.03639 156.26786 219.02148 159.18945 C 220.56269 161.45771 220.80118 163.91355 221.06445 166.65625 L 223.21289 163.29297 L 223.19922 154.91602 L 228.56445 154.91602 L 290.41797 58.083984 L 201.01953 58.083984 z M 179.0625 161.60352 L 177.53516 168.80078 L 204.12305 168.80078 L 207.23828 168.80078 L 207.23828 175.03125 L 215.27734 175.02539 C 215.20187 172.67347 215.13157 169.9898 214.90234 167.62109 C 214.66922 165.21191 214.0415 163.12055 213.91211 162.79102 C 213.81473 162.90181 212.48894 162.12024 210.50195 161.88477 C 208.22551 161.61483 205.3916 161.60352 203.07617 161.60352 L 179.0625 161.60352 z M 176.21484 175.02539 L 172.20508 193.92969 L 172.20508 207.49023 L 182.67969 205.39648 L 182.67969 186.83594 L 208.17383 186.83594 L 211.74219 181.25 L 201.01562 181.26172 L 201.01562 175.02539 L 176.21484 175.02539 z M 241.9375 182.05859 L 229.47461 185.0957 L 229.51758 211.79492 L 241.94727 187.27344 L 241.9375 182.05859 z M 223.25195 186.61133 L 218.14258 187.85547 L 218.14258 215.79492 C 218.14258 222.90694 217.52236 227.95759 215.16797 231.55469 L 215.16016 231.57031 L 215.15234 231.58398 C 212.7522 235.18179 208.30454 236.65625 203.07617 236.65625 L 190.69922 236.65625 L 161.625 326.78516 L 149.50195 315.16797 L 158.08984 350.01758 L 182.33203 331.83594 L 170.21094 328.80469 L 223.3125 224.03711 L 223.25195 186.61133 z M 188.90234 193.05859 L 188.90234 199.61328 L 207.23828 199.61328 L 207.23828 222.52734 L 195.25586 222.52734 L 192.70508 230.43359 L 203.07617 230.43359 C 207.20173 230.43359 209.07561 229.45601 209.96289 228.13672 C 210.89184 226.71104 211.91211 222.4028 211.91211 215.79492 L 211.91211 193.05859 L 188.90234 193.05859 z M 200.63867 205.84375 L 197.26367 216.30469 L 201.01758 216.30469 L 201.01758 205.84375 L 200.63867 205.84375 z "
       transform="scale(0.26458334)" />
    <path
       id="letter"
       d="M 15.453254,45.685313 H 7.3519069 v 5.160154 h 8.1013471 q 0.937588,0 1.274535,-0.331725 0.351595,-0.350153 0.351595,-1.216321 V 47.21493 q 0,-0.84774 -0.351595,-1.179463 -0.336947,-0.350154 -1.274535,-0.350154 z M 3.8066519,61.792363 V 42.312784 H 17.050083 q 1.845878,0 2.666266,0.903027 0.83504,0.884598 0.83504,2.874943 v 4.349272 q 0,1.971915 -0.83504,2.874943 -0.820388,0.884596 -2.666266,0.884596 H 7.3519069 v 7.592798 z"
       style="font-style:normal;font-variant:normal;font-weight:normal;font-stretch:normal;font-size:22.9306px;line-height:1.25;font-family:'BankGothic Md BT';-inkscape-font-specification:'BankGothic Md BT, Normal';font-variant-ligatures:normal;font-variant-caps:normal;font-variant-numeric:normal;font-variant-east-asian:normal;letter-spacing:0px;white-space:pre;fill:#ffffff;stroke:none;stroke-width:1.00013;stroke-miterlimit:4;stroke-dasharray:none" />
    <path
       id="path18"
       d="m 27.648719,52.183529 7.026349,0.02767 0.04482,-5.936581 c 0.01465,-1.940013 -7.135659,-1.609639 -6.953601,0.0834 -0.177542,2.464168 -0.117568,5.825507 -0.117568,5.825507 z m -3.63258,9.608831 c 0,0 -1.105954,-16.875148 1.106231,-19.491041 1.650856,-1.952126 12.127198,-1.000237 12.914017,-0.526435 0.840873,0.506353 0.536565,20.017476 0.536565,20.017476 l -3.926232,0 -0.09488,-5.078118 h -7.015825 l 0.02365,4.983624 z m 4.860101,-19.806385 2.498756,-4.304322 4.833223,0.0034 -2.507023,4.234147 z"
       style="font-style:normal;font-variant:normal;font-weight:normal;font-stretch:normal;font-size:22.9306px;line-height:1.25;font-family:'BankGothic Md BT';-inkscape-font-specification:'BankGothic Md BT, Normal';font-variant-ligatures:normal;font-variant-caps:normal;font-variant-numeric:normal;font-variant-east-asian:normal;letter-spacing:0px;white-space:pre;fill:#ffffff;stroke:none;stroke-width:1.00013;stroke-miterlimit:4;stroke-dasharray:none"
       sodipodi:nodetypes="ccsccccscccccccccccc" />
    <path
       id="path20"
       style="color:#000000;font-style:normal;font-variant:normal;font-weight:normal;font-stretch:normal;font-size:22.9306px;line-height:1.25;font-family:'BankGothic Md BT';-inkscape-font-specification:'BankGothic Md BT, Normal';font-variant-ligatures:normal;font-variant-position:normal;font-variant-caps:normal;font-variant-numeric:normal;font-variant-alternates:normal;font-variant-east-asian:normal;font-feature-settings:normal;font-variation-settings:normal;text-indent:0;text-align:start;text-decoration:none;text-decoration-line:none;text-decoration-style:solid;text-decoration-color:#000000;letter-spacing:0px;word-spacing:normal;text-transform:none;writing-mode:lr-tb;direction:ltr;text-orientation:mixed;dominant-baseline:auto;baseline-shift:baseline;text-anchor:start;white-space:pre;shape-padding:0;shape-margin:0;inline-size:0;clip-rule:nonzero;display:inline;overflow:visible;visibility:visible;isolation:auto;mix-blend-mode:normal;color-interpolation:sRGB;color-interpolation-filters:linearRGB;solid-color:#000000;solid-opacity:1;vector-effect:none;fill:#ffffff;fill-opacity:1;fill-rule:nonzero;stroke:none;stroke-width:1.00013;stroke-linecap:butt;stroke-linejoin:miter;stroke-miterlimit:4;stroke-dasharray:none;stroke-dashoffset:0;stroke-opacity:1;color-rendering:auto;image-rendering:auto;shape-rendering:auto;text-rendering:auto;enable-background:accumulate;stop-color:#000000"
       d="m 54.008388,45.485496 h -9.268752 v 12.568311 h 9.268752 V 53.63893 h -4.851612 v -3.381608 h 7.736028 v 6.838364 c 0,1.816048 -0.217237,3.055971 -0.65171,3.719768 -0.434472,0.651273 -1.271234,0.976909 -2.510287,0.976909 h -8.798072 c -1.239052,0 -2.075815,-0.325636 -2.510288,-0.976909 -0.434472,-0.663797 -0.651708,-1.90372 -0.651708,-3.719768 v -10.4642 c 0,-1.803524 0.217236,-3.037185 0.651708,-3.700983 0.434473,-0.663797 1.271236,-0.995695 2.510288,-0.995695 h 8.798072 c 1.222961,0 3.095136,-0.0051 3.537654,0.646181 0.442518,0.651273 0.479361,2.564082 0.522017,3.86263 0.0075,0.229456 -0.04725,0.687116 -0.04725,0.687116 l -3.734862,0.0046 z" />
    <path
       id="path22"
       style="color:#000000;font-style:normal;font-variant:normal;font-weight:normal;font-stretch:normal;font-size:22.9306px;line-height:1.25;font-family:'BankGothic Md BT';-inkscape-font-specification:'BankGothic Md BT, Normal';font-variant-ligatures:normal;font-variant-position:normal;font-variant-caps:normal;font-variant-numeric:normal;font-variant-alternates:normal;font-variant-east-asian:normal;font-feature-settings:normal;font-variation-settings:normal;text-indent:0;text-align:start;text-decoration:none;text-decoration-line:none;text-decoration-style:solid;text-decoration-color:#000000;letter-spacing:0px;word-spacing:normal;text-transform:none;writing-mode:lr-tb;direction:ltr;text-orientation:mixed;dominant-baseline:auto;baseline-shift:baseline;text-anchor:start;white-space:pre;shape-padding:0;shape-margin:0;inline-size:0;clip-rule:nonzero;display:inline;overflow:visible;visibility:visible;isolation:auto;mix-blend-mode:normal;color-interpolation:sRGB;color-interpolation-filters:linearRGB;solid-color:#000000;solid-opacity:1;vector-effect:none;fill:#ffffff;fill-opacity:1;fill-rule:nonzero;stroke:none;stroke-width:1.00013;stroke-linecap:butt;stroke-linejoin:miter;stroke-miterlimit:4;stroke-dasharray:none;stroke-dashoffset:0;stroke-opacity:1;color-rendering:auto;image-rendering:auto;shape-rendering:auto;text-rendering:auto;enable-background:accumulate;stop-color:#000000"
       d="m 59.912974,61.62532 -0.03341,-19.813666 h 4.944486 l 0.03924,19.9473 z" />
    <path
       id="path24"
       d="m 78.701472,45.533183 h -8.209994 v 4.18341 h 9.695592 c 1.5203,0 2.545276,0.325581 3.074929,0.976744 0.539461,0.651162 0.809192,1.86134 0.809192,3.630535 v 2.672224 c 0,1.769195 -0.269731,2.979373 -0.809192,3.630535 -0.529653,0.651163 -1.554629,0.976744 -3.074929,0.976744 h -9.607317 c -1.5203,0 -2.550181,-0.325581 -3.089642,-0.976744 -0.529653,-0.651162 -0.79448,-1.86134 -0.79448,-3.630535 v -0.534445 l 4.929883,0.139542 0.06682,0.733431 7.415568,-0.100227 v -3.505974 l -7.924929,-0.233861 c -1.509835,-0.04456 -2.530565,-0.325581 -3.060217,-0.976743 -0.529654,-0.651163 -0.794481,-1.861341 -0.794481,-3.630536 v -2.156207 c 0,-1.769195 0.264827,-2.979374 0.794481,-3.630537 0.529652,-0.651162 1.549724,-0.976743 3.060217,-0.976743 h 8.827549 c 1.461449,0 2.466809,0.313295 3.01608,0.939885 0.559078,0.626591 0.838617,1.738481 0.838617,3.33567 v 0.405441 l -5.230561,0.03785 z"
       style="font-style:normal;font-variant:normal;font-weight:normal;font-stretch:normal;font-size:22.9306px;line-height:1.25;font-family:'BankGothic Md BT';-inkscape-font-specification:'BankGothic Md BT, Normal';font-variant-ligatures:normal;font-variant-caps:normal;font-variant-numeric:normal;font-variant-east-asian:normal;letter-spacing:0px;white-space:pre;fill:#ffffff;stroke:none;stroke-width:1.00013;stroke-miterlimit:4;stroke-dasharray:none"
       sodipodi:nodetypes="cccscsscsscscccccssssssscsccc" />
    <path
       id="path26"
       d="M 86.11878,61.792363 V 59.673014 L 96.389068,45.795887 h -9.24187 V 42.312784 H 101.8925 v 1.935057 L 91.469335,58.124968 H 101.8925 v 3.667395 z"
       style="font-style:normal;font-variant:normal;font-weight:normal;font-stretch:normal;font-size:22.9306px;line-height:1.25;font-family:'BankGothic Md BT';-inkscape-font-specification:'BankGothic Md BT, Normal';font-variant-ligatures:normal;font-variant-caps:normal;font-variant-numeric:normal;font-variant-east-asian:normal;letter-spacing:0px;white-space:pre;fill:#ffffff;stroke:none;stroke-width:1.00013;stroke-miterlimit:4;stroke-dasharray:none" />
  </g>
</svg>
