<?xml version="1.0" encoding="UTF-8" standalone="no"?>
<svg
   xmlns:dc="http://purl.org/dc/elements/1.1/"
   xmlns:cc="http://creativecommons.org/ns#"
   xmlns:rdf="http://www.w3.org/1999/02/22-rdf-syntax-ns#"
   xmlns:svg="http://www.w3.org/2000/svg"
   xmlns="http://www.w3.org/2000/svg"
   xmlns:sodipodi="http://sodipodi.sourceforge.net/DTD/sodipodi-0.dtd"
   xmlns:inkscape="http://www.inkscape.org/namespaces/inkscape"
   width="65"
   height="65"
   viewBox="0 0 17.197916 17.197917"
   version="1.1"
   id="svg8"
   inkscape:version="1.0.1 (3bc2e813f5, 2020-09-07)"
   sodipodi:docname="pagiszMenu.svg">
  <defs
     id="defs2">
    <rect
       x="1.7290936"
       y="39.971207"
       width="102.37515"
       height="25.890924"
       id="rect933" />
    <rect
       x="1.7290936"
       y="39.971207"
       width="102.37515"
       height="25.890924"
       id="rect927" />
    <rect
       x="104.10476"
       y="39.971207"
       width="48.353271"
       height="12.189955"
       id="rect900" />
    <rect
       x="1.7290936"
       y="39.971207"
       width="102.37515"
       height="25.890924"
       id="rect894" />
    <rect
       x="1.7290936"
       y="39.971207"
       width="102.37515"
       height="25.890924"
       id="rect888" />
    <rect
       x="5.1026788"
       y="41.955357"
       width="99.001564"
       height="23.906773"
       id="rect882" />
  </defs>
  <sodipodi:namedview
     id="base"
     pagecolor="#ffffff"
     bordercolor="#666666"
     borderopacity="1.0"
     inkscape:pageopacity="0.0"
     inkscape:pageshadow="2"
     inkscape:zoom="7.9195959"
     inkscape:cx="29.796506"
     inkscape:cy="37.33041"
     inkscape:document-units="px"
     inkscape:current-layer="layer1"
     inkscape:document-rotation="0"
     showgrid="false"
     inkscape:window-width="1920"
     inkscape:window-height="1007"
     inkscape:window-x="-9"
     inkscape:window-y="-9"
     inkscape:window-maximized="1"
     units="px"
     showborder="true"
     inkscape:showpageshadow="false" />
  <metadata
     id="metadata5">
    <rdf:RDF>
      <cc:Work
         rdf:about="">
        <dc:format>image/svg+xml</dc:format>
        <dc:type
           rdf:resource="http://purl.org/dc/dcmitype/StillImage" />
        <dc:title></dc:title>
      </cc:Work>
    </rdf:RDF>
  </metadata>
  <g
     inkscape:label="Réteg 1"
     inkscape:groupmode="layer"
     id="layer1">
    <g
       id="g905"
       style="fill:#ffffff"
       transform="matrix(0.49136904,0,0,0.49136904,-37.791785,-41.916523)">
      <g
         inkscape:label="Réteg 1"
         id="layer1-7"
         transform="matrix(0.34187639,0,0,0.34270327,76.320244,84.670869)"
         style="fill:#ffffff">
        <path
           id="path869"
           style="opacity:0.997;fill:#ffffff;fill-opacity:1;stroke:none;stroke-width:39.9999;stroke-linecap:square;stroke-miterlimit:4;stroke-dasharray:none;stroke-opacity:1"
           d="M 200,7 A 200.00002,193.00002 0 0 0 6.5351562,151.07227 H 44.486328 A 163.57144,157.84644 0 0 1 200,42.154297 a 163.57144,157.84644 0 0 1 56.8125,9.828125 h 44.73828 l -10.70312,16.755859 a 163.57144,157.84644 0 0 1 64.66601,82.333989 H 393.4668 A 200.00002,193.00002 0 0 0 200,7 Z M 6.5332031,248.92773 A 200.00002,193.00002 0 0 0 200,393 200.00002,193.00002 0 0 0 393.46484,248.92773 H 355.51367 A 163.57144,157.84644 0 0 1 200,357.8457 163.57144,157.84644 0 0 1 163.20703,353.80078 l -8.83789,6.62695 -2.34766,-9.52539 A 163.57144,157.84644 0 0 1 44.486328,248.92773 Z"
           transform="scale(0.26458334)" />
        <text
           xml:space="preserve"
           id="text880"
           style="font-size:10.5833px;line-height:1.25;font-family:sans-serif;letter-spacing:0px;white-space:pre;shape-inside:url(#rect882);fill:#ffffff;" />
        <text
           xml:space="preserve"
           id="text886"
           style="font-size:10.5833px;line-height:1.25;font-family:sans-serif;letter-spacing:0px;white-space:pre;shape-inside:url(#rect888);fill:#ffffff;" />
        <text
           xml:space="preserve"
           id="text898"
           style="font-size:10.5833px;line-height:1.25;font-family:sans-serif;letter-spacing:0px;white-space:pre;shape-inside:url(#rect900);fill:#ffffff;" />
        <text
           xml:space="preserve"
           id="text925"
           style="font-style:normal;font-variant:normal;font-weight:normal;font-stretch:normal;font-size:22.5778px;line-height:1.25;font-family:'Arial Rounded MT Bold';-inkscape-font-specification:'Arial Rounded MT Bold, Normal';font-variant-ligatures:normal;font-variant-caps:normal;font-variant-numeric:normal;font-variant-east-asian:normal;letter-spacing:0px;white-space:pre;shape-inside:url(#rect927);fill:#ffffff;" />
        <path
           id="path960"
           style="color:#000000;font-style:normal;font-variant:normal;font-weight:normal;font-stretch:normal;font-size:medium;line-height:normal;font-family:sans-serif;font-variant-ligatures:normal;font-variant-position:normal;font-variant-caps:normal;font-variant-numeric:normal;font-variant-alternates:normal;font-variant-east-asian:normal;font-feature-settings:normal;font-variation-settings:normal;text-indent:0;text-align:start;text-decoration:none;text-decoration-line:none;text-decoration-style:solid;text-decoration-color:#000000;letter-spacing:normal;word-spacing:normal;text-transform:none;writing-mode:lr-tb;direction:ltr;text-orientation:mixed;dominant-baseline:auto;baseline-shift:baseline;text-anchor:start;white-space:normal;shape-padding:0;shape-margin:0;inline-size:0;clip-rule:nonzero;display:inline;overflow:visible;visibility:visible;isolation:auto;mix-blend-mode:normal;color-interpolation:sRGB;color-interpolation-filters:linearRGB;solid-color:#000000;solid-opacity:1;vector-effect:none;fill:#ffffff;fill-opacity:1;fill-rule:nonzero;stroke:none;stroke-width:12.2;stroke-linecap:butt;stroke-linejoin:miter;stroke-miterlimit:4;stroke-dasharray:none;stroke-dashoffset:0;stroke-opacity:1;color-rendering:auto;image-rendering:auto;shape-rendering:auto;text-rendering:auto;enable-background:accumulate;stop-color:#000000"
           d="m 201.01953,58.083984 -20.63867,97.296876 h 22.69531 c 2.30678,0 5.32105,-0.0176 8.15625,0.31836 2.8352,0.33598 5.80397,0.56864 7.78906,3.49023 1.54121,2.26826 1.7797,4.7241 2.04297,7.4668 l 2.14844,-3.36328 -0.0137,-8.37695 h 5.36523 l 61.85352,-96.832036 z m -21.95703,103.519536 -1.52734,7.19726 h 26.58789 3.11523 v 6.23047 l 8.03906,-0.006 c -0.0755,-2.35192 -0.14577,-5.03559 -0.375,-7.4043 -0.23312,-2.40918 -0.86084,-4.50054 -0.99023,-4.83007 -0.0974,0.11079 -1.42317,-0.67078 -3.41016,-0.90625 -2.27644,-0.26994 -5.11035,-0.28125 -7.42578,-0.28125 z m -2.84766,13.42187 -4.00976,18.9043 v 13.56054 l 10.47461,-2.09375 v -18.56054 h 25.49414 l 3.56836,-5.58594 -10.72657,0.0117 v -6.23633 z m 65.72266,7.0332 -12.46289,3.03711 0.043,26.69922 12.42969,-24.52148 z m -18.68555,4.55274 -5.10937,1.24414 v 27.93945 c 0,7.11202 -0.62022,12.16267 -2.97461,15.75977 l -0.008,0.0156 -0.008,0.0137 c -2.40014,3.59781 -6.8478,5.07227 -12.07617,5.07227 h -12.37695 l -29.07422,90.12891 -12.12305,-11.61719 8.58789,34.84961 24.24219,-18.18164 -12.12109,-3.03125 53.10156,-104.76758 z m -34.34961,6.44726 v 6.55469 h 18.33594 v 22.91406 h -11.98242 l -2.55078,7.90625 h 10.37109 c 4.12556,0 5.99944,-0.97758 6.88672,-2.29687 0.92895,-1.42568 1.94922,-5.73392 1.94922,-12.3418 v -22.73633 z m 11.73633,12.78516 -3.375,10.46094 h 3.75391 v -10.46094 z"
           transform="scale(0.26458334)" />
        <path
           id="letter"
           d="M 15.453254,45.685313 H 7.3519069 v 5.160154 h 8.1013471 q 0.937588,0 1.274535,-0.331725 0.351595,-0.350153 0.351595,-1.216321 V 47.21493 q 0,-0.84774 -0.351595,-1.179463 -0.336947,-0.350154 -1.274535,-0.350154 z M 3.8066519,61.792363 V 42.312784 H 17.050083 q 1.845878,0 2.666266,0.903027 0.83504,0.884598 0.83504,2.874943 v 4.349272 q 0,1.971915 -0.83504,2.874943 -0.820388,0.884596 -2.666266,0.884596 H 7.3519069 v 7.592798 z"
           style="font-style:normal;font-variant:normal;font-weight:normal;font-stretch:normal;font-size:22.9306px;line-height:1.25;font-family:'BankGothic Md BT';-inkscape-font-specification:'BankGothic Md BT, Normal';font-variant-ligatures:normal;font-variant-caps:normal;font-variant-numeric:normal;font-variant-east-asian:normal;letter-spacing:0px;white-space:pre;fill:#ffffff;stroke:none;stroke-width:1.00013;stroke-miterlimit:4;stroke-dasharray:none" />
        <path
           id="path849"
           d="m 27.648719,52.183529 7.026349,0.02767 0.04482,-5.936581 c 0.01465,-1.940013 -7.135659,-1.609639 -6.953601,0.0834 -0.177542,2.464168 -0.117568,5.825507 -0.117568,5.825507 z m -3.63258,9.608831 c 0,0 -1.105954,-16.875148 1.106231,-19.491041 1.650856,-1.952126 12.127198,-1.000237 12.914017,-0.526435 0.840873,0.506353 0.536565,20.017476 0.536565,20.017476 H 34.64672 l -0.09488,-5.078118 h -7.015825 l 0.02365,4.983624 z m 4.860101,-19.806385 2.498756,-4.304322 4.833223,0.0034 -2.507023,4.234147 z"
           style="font-style:normal;font-variant:normal;font-weight:normal;font-stretch:normal;font-size:22.9306px;line-height:1.25;font-family:'BankGothic Md BT';-inkscape-font-specification:'BankGothic Md BT, Normal';font-variant-ligatures:normal;font-variant-caps:normal;font-variant-numeric:normal;font-variant-east-asian:normal;letter-spacing:0px;white-space:pre;fill:#ffffff;stroke:none;stroke-width:1.00013;stroke-miterlimit:4;stroke-dasharray:none"
           sodipodi:nodetypes="ccsccccscccccccccccc" />
        <path
           id="path851"
           style="color:#000000;font-style:normal;font-variant:normal;font-weight:normal;font-stretch:normal;font-size:22.9306px;line-height:1.25;font-family:'BankGothic Md BT';-inkscape-font-specification:'BankGothic Md BT, Normal';font-variant-ligatures:normal;font-variant-position:normal;font-variant-caps:normal;font-variant-numeric:normal;font-variant-alternates:normal;font-variant-east-asian:normal;font-feature-settings:normal;font-variation-settings:normal;text-indent:0;text-align:start;text-decoration:none;text-decoration-line:none;text-decoration-style:solid;text-decoration-color:#000000;letter-spacing:0px;word-spacing:normal;text-transform:none;writing-mode:lr-tb;direction:ltr;text-orientation:mixed;dominant-baseline:auto;baseline-shift:baseline;text-anchor:start;white-space:pre;shape-padding:0;shape-margin:0;inline-size:0;clip-rule:nonzero;display:inline;overflow:visible;visibility:visible;isolation:auto;mix-blend-mode:normal;color-interpolation:sRGB;color-interpolation-filters:linearRGB;solid-color:#000000;solid-opacity:1;vector-effect:none;fill:#ffffff;fill-opacity:1;fill-rule:nonzero;stroke:none;stroke-width:1.00013;stroke-linecap:butt;stroke-linejoin:miter;stroke-miterlimit:4;stroke-dasharray:none;stroke-dashoffset:0;stroke-opacity:1;color-rendering:auto;image-rendering:auto;shape-rendering:auto;text-rendering:auto;enable-background:accumulate;stop-color:#000000"
           d="m 54.008388,45.485496 h -9.268752 v 12.568311 h 9.268752 V 53.63893 h -4.851612 v -3.381608 h 7.736028 v 6.838364 c 0,1.816048 -0.217237,3.055971 -0.65171,3.719768 -0.434472,0.651273 -1.271234,0.976909 -2.510287,0.976909 h -8.798072 c -1.239052,0 -2.075815,-0.325636 -2.510288,-0.976909 -0.434472,-0.663797 -0.651708,-1.90372 -0.651708,-3.719768 v -10.4642 c 0,-1.803524 0.217236,-3.037185 0.651708,-3.700983 0.434473,-0.663797 1.271236,-0.995695 2.510288,-0.995695 h 8.798072 c 1.222961,0 3.095136,-0.0051 3.537654,0.646181 0.442518,0.651273 0.479361,2.564082 0.522017,3.86263 0.0075,0.229456 -0.04725,0.687116 -0.04725,0.687116 l -3.734862,0.0046 z" />
        <path
           id="path853"
           style="color:#000000;font-style:normal;font-variant:normal;font-weight:normal;font-stretch:normal;font-size:22.9306px;line-height:1.25;font-family:'BankGothic Md BT';-inkscape-font-specification:'BankGothic Md BT, Normal';font-variant-ligatures:normal;font-variant-position:normal;font-variant-caps:normal;font-variant-numeric:normal;font-variant-alternates:normal;font-variant-east-asian:normal;font-feature-settings:normal;font-variation-settings:normal;text-indent:0;text-align:start;text-decoration:none;text-decoration-line:none;text-decoration-style:solid;text-decoration-color:#000000;letter-spacing:0px;word-spacing:normal;text-transform:none;writing-mode:lr-tb;direction:ltr;text-orientation:mixed;dominant-baseline:auto;baseline-shift:baseline;text-anchor:start;white-space:pre;shape-padding:0;shape-margin:0;inline-size:0;clip-rule:nonzero;display:inline;overflow:visible;visibility:visible;isolation:auto;mix-blend-mode:normal;color-interpolation:sRGB;color-interpolation-filters:linearRGB;solid-color:#000000;solid-opacity:1;vector-effect:none;fill:#ffffff;fill-opacity:1;fill-rule:nonzero;stroke:none;stroke-width:1.00013;stroke-linecap:butt;stroke-linejoin:miter;stroke-miterlimit:4;stroke-dasharray:none;stroke-dashoffset:0;stroke-opacity:1;color-rendering:auto;image-rendering:auto;shape-rendering:auto;text-rendering:auto;enable-background:accumulate;stop-color:#000000"
           d="m 59.912974,61.62532 -0.03341,-19.813666 h 4.944486 l 0.03924,19.9473 z" />
        <path
           id="path855"
           d="m 78.701472,45.533183 h -8.209994 v 4.18341 h 9.695592 c 1.5203,0 2.545276,0.325581 3.074929,0.976744 0.539461,0.651162 0.809192,1.86134 0.809192,3.630535 v 2.672224 c 0,1.769195 -0.269731,2.979373 -0.809192,3.630535 -0.529653,0.651163 -1.554629,0.976744 -3.074929,0.976744 h -9.607317 c -1.5203,0 -2.550181,-0.325581 -3.089642,-0.976744 -0.529653,-0.651162 -0.79448,-1.86134 -0.79448,-3.630535 v -0.534445 l 4.929883,0.139542 0.06682,0.733431 7.415568,-0.100227 v -3.505974 l -7.924929,-0.233861 c -1.509835,-0.04456 -2.530565,-0.325581 -3.060217,-0.976743 -0.529654,-0.651163 -0.794481,-1.861341 -0.794481,-3.630536 v -2.156207 c 0,-1.769195 0.264827,-2.979374 0.794481,-3.630537 0.529652,-0.651162 1.549724,-0.976743 3.060217,-0.976743 h 8.827549 c 1.461449,0 2.466809,0.313295 3.01608,0.939885 0.559078,0.626591 0.838617,1.738481 0.838617,3.33567 v 0.405441 l -5.230561,0.03785 z"
           style="font-style:normal;font-variant:normal;font-weight:normal;font-stretch:normal;font-size:22.9306px;line-height:1.25;font-family:'BankGothic Md BT';-inkscape-font-specification:'BankGothic Md BT, Normal';font-variant-ligatures:normal;font-variant-caps:normal;font-variant-numeric:normal;font-variant-east-asian:normal;letter-spacing:0px;white-space:pre;fill:#ffffff;stroke:none;stroke-width:1.00013;stroke-miterlimit:4;stroke-dasharray:none"
           sodipodi:nodetypes="cccscsscsscscccccssssssscsccc" />
        <path
           id="path857"
           d="M 86.11878,61.792363 V 59.673014 L 96.389068,45.795887 h -9.24187 V 42.312784 H 101.8925 v 1.935057 L 91.469335,58.124968 H 101.8925 v 3.667395 z"
           style="font-style:normal;font-variant:normal;font-weight:normal;font-stretch:normal;font-size:22.9306px;line-height:1.25;font-family:'BankGothic Md BT';-inkscape-font-specification:'BankGothic Md BT, Normal';font-variant-ligatures:normal;font-variant-caps:normal;font-variant-numeric:normal;font-variant-east-asian:normal;letter-spacing:0px;white-space:pre;fill:#ffffff;stroke:none;stroke-width:1.00013;stroke-miterlimit:4;stroke-dasharray:none" />
      </g>
    </g>
  </g>
</svg>
